<?xml version="1.0" encoding="utf-8"?>
<!-- Generator: Adobe Illustrator 15.0.0, SVG Export Plug-In . SVG Version: 6.00 Build 0)  -->
<!DOCTYPE svg PUBLIC "-//W3C//DTD SVG 1.1//EN" "http://www.w3.org/Graphics/SVG/1.1/DTD/svg11.dtd">
<svg version="1.1" id="Capa_1" xmlns="http://www.w3.org/2000/svg" xmlns:xlink="http://www.w3.org/1999/xlink" x="0px" y="0px"
	 width="60px" height="60px" viewBox="0 0 60 60" enable-background="new 0 0 60 60" xml:space="preserve">
<path fill="#0E0E0E" d="M55.736,0H3.188C1.383,0-0.075,1.455-0.075,3.261v52.556c0,1.801,1.458,3.264,3.263,3.264H31.48V36.2H23.78
	v-8.916h7.701v-6.576c0-7.631,4.658-11.786,11.47-11.786c3.265,0,6.062,0.244,6.881,0.35v7.976l-4.724,0.003
	c-3.705,0-4.42,1.761-4.42,4.34v5.692h8.836l-1.15,8.917h-7.686v22.877h15.057c1.799,0,3.259-1.463,3.259-3.265V3.261
	C59,1.455,57.54,0,55.736,0z"/>
</svg>
