<?xml version="1.0" encoding="utf-8"?>
<!-- Generator: Adobe Illustrator 16.0.0, SVG Export Plug-In . SVG Version: 6.00 Build 0)  -->
<!DOCTYPE svg PUBLIC "-//W3C//DTD SVG 1.1//EN" "http://www.w3.org/Graphics/SVG/1.1/DTD/svg11.dtd">
<svg version="1.1" id="Layer_1" xmlns="http://www.w3.org/2000/svg" xmlns:xlink="http://www.w3.org/1999/xlink" x="0px" y="0px"
	 width="169.062px" height="169.062px" viewBox="0 0 169.062 169.062" enable-background="new 0 0 169.062 169.062"
	 xml:space="preserve">
<g>
	<path fill="#4CC3A1" d="M157.164,1.392H9.645c-5.066,0-9.159,4.085-9.159,9.154v147.54c0,5.055,4.093,9.161,9.159,9.161h79.427
		v-64.23H67.451V77.987h21.621V59.526c0-21.422,13.076-33.087,32.197-33.087c9.164,0,17.018,0.686,19.316,0.983v22.391l-13.26,0.008
		c-10.4,0-12.408,4.944-12.408,12.183v15.98h24.807l-3.23,25.032h-21.576v64.222h42.268c5.049,0,9.148-4.105,9.148-9.164V10.546
		C166.326,5.477,162.228,1.392,157.164,1.392z"/>
	<rect x="57.048" y="16.744" fill="#4CC3A1" width="93" height="150.494"/>
</g>
<g>
	<path fill="#FFFFFF" d="M115.045,13.715H51.774c-21.486,0-38.968,17.482-38.968,38.968v63.272
		c0,21.487,17.481,38.968,38.967,38.968h63.272c21.488,0,38.969-17.482,38.969-38.968V52.683
		C154.015,31.197,136.533,13.715,115.045,13.715z M141.486,115.955c0,14.578-11.861,26.439-26.439,26.439H51.774
		c-14.578,0.001-26.438-11.86-26.438-26.439V52.683c0-14.579,11.86-26.44,26.438-26.44h63.273c14.578,0,26.439,11.861,26.439,26.439
		V115.955L141.486,115.955z"/>
	<path fill="#FFFFFF" d="M83.41,47.935c-20.063,0-36.386,16.322-36.386,36.385s16.322,36.384,36.386,36.384
		c20.062,0,36.384-16.321,36.384-36.384S103.472,47.935,83.41,47.935z M83.41,108.175c-13.154,0-23.857-10.7-23.857-23.854
		c0-13.155,10.702-23.857,23.857-23.857c13.156,0,23.855,10.702,23.855,23.857C107.267,97.474,96.564,108.175,83.41,108.175z"/>
	<path fill="#FFFFFF" d="M121.322,37.311c-2.414,0-4.785,0.977-6.49,2.69c-1.713,1.703-2.697,4.076-2.697,6.498
		c0,2.416,0.986,4.786,2.697,6.499c1.703,1.703,4.076,2.689,6.49,2.689c2.422,0,4.785-0.986,6.498-2.689
		c1.713-1.713,2.689-4.085,2.689-6.499c0-2.421-0.977-4.794-2.689-6.498C126.117,38.288,123.744,37.311,121.322,37.311z"/>
</g>
</svg>
